<?xml version="1.0" encoding="UTF-8" standalone="no"?>
<!DOCTYPE svg PUBLIC "-//W3C//DTD SVG 1.1//EN"
 "http://www.w3.org/Graphics/SVG/1.1/DTD/svg11.dtd">
<!-- Generated by graphviz version 3.0.0 (20220315.2325)
 -->
<!-- Pages: 1 -->
<svg width="804pt" height="549pt"
 viewBox="0.00 0.00 804.25 548.84" xmlns="http://www.w3.org/2000/svg" xmlns:xlink="http://www.w3.org/1999/xlink">
<g id="graph0" class="graph" transform="scale(1 1) rotate(0) translate(4 544.84)">
<polygon fill="white" stroke="transparent" points="-4,4 -4,-544.84 800.25,-544.84 800.25,4 -4,4"/>
<g id="clust1" class="cluster">
<title>cluster1000</title>
<path fill="none" stroke="black" d="M166.12,-8C166.12,-8 396.12,-8 396.12,-8 402.12,-8 408.12,-14 408.12,-20 408.12,-20 408.12,-520.84 408.12,-520.84 408.12,-526.84 402.12,-532.84 396.12,-532.84 396.12,-532.84 166.12,-532.84 166.12,-532.84 160.12,-532.84 154.12,-526.84 154.12,-520.84 154.12,-520.84 154.12,-20 154.12,-20 154.12,-14 160.12,-8 166.12,-8"/>
<text text-anchor="middle" x="381.62" y="-15.8" font-family="Times,serif" font-size="14.00">1000</text>
</g>
<!-- like_b -->
<g id="node1" class="node">
<title>like_b</title>
<ellipse fill="lightgrey" stroke="black" cx="348.12" cy="-387.38" rx="49.49" ry="37.45"/>
<text text-anchor="middle" x="348.12" y="-398.68" font-family="Times,serif" font-size="14.00">like_b</text>
<text text-anchor="middle" x="348.12" y="-383.68" font-family="Times,serif" font-size="14.00">~</text>
<text text-anchor="middle" x="348.12" y="-368.68" font-family="Times,serif" font-size="14.00">Normal</text>
</g>
<!-- b -->
<g id="node2" class="node">
<title>b</title>
<path fill="lightgrey" stroke="black" d="M388.12,-302.93C388.12,-302.93 302.12,-302.93 302.12,-302.93 296.12,-302.93 290.12,-296.93 290.12,-290.93 290.12,-290.93 290.12,-261.93 290.12,-261.93 290.12,-255.93 296.12,-249.93 302.12,-249.93 302.12,-249.93 388.12,-249.93 388.12,-249.93 394.12,-249.93 400.12,-255.93 400.12,-261.93 400.12,-261.93 400.12,-290.93 400.12,-290.93 400.12,-296.93 394.12,-302.93 388.12,-302.93"/>
<text text-anchor="middle" x="345.12" y="-287.73" font-family="Times,serif" font-size="14.00">b</text>
<text text-anchor="middle" x="345.12" y="-272.73" font-family="Times,serif" font-size="14.00">~</text>
<text text-anchor="middle" x="345.12" y="-257.73" font-family="Times,serif" font-size="14.00">MutableData</text>
</g>
<!-- like_b&#45;&gt;b -->
<g id="edge2" class="edge">
<title>like_b&#45;&gt;b</title>
<path fill="none" stroke="black" d="M347.12,-349.8C346.79,-338.06 346.44,-325.08 346.11,-313.38"/>
<polygon fill="black" stroke="black" points="349.61,-312.98 345.83,-303.08 342.61,-313.17 349.61,-312.98"/>
</g>
<!-- like_a -->
<g id="node7" class="node">
<title>like_a</title>
<ellipse fill="lightgrey" stroke="black" cx="345.12" cy="-165.48" rx="49.49" ry="37.45"/>
<text text-anchor="middle" x="345.12" y="-176.78" font-family="Times,serif" font-size="14.00">like_a</text>
<text text-anchor="middle" x="345.12" y="-161.78" font-family="Times,serif" font-size="14.00">~</text>
<text text-anchor="middle" x="345.12" y="-146.78" font-family="Times,serif" font-size="14.00">Normal</text>
</g>
<!-- b&#45;&gt;like_a -->
<g id="edge10" class="edge">
<title>b&#45;&gt;like_a</title>
<path fill="none" stroke="black" d="M345.12,-249.89C345.12,-238.98 345.12,-225.89 345.12,-213.35"/>
<polygon fill="black" stroke="black" points="348.62,-213 345.12,-203 341.62,-213 348.62,-213"/>
</g>
<!-- e -->
<g id="node3" class="node">
<title>e</title>
<path fill="lightgrey" stroke="black" d="M388.12,-524.84C388.12,-524.84 302.12,-524.84 302.12,-524.84 296.12,-524.84 290.12,-518.84 290.12,-512.84 290.12,-512.84 290.12,-483.84 290.12,-483.84 290.12,-477.84 296.12,-471.84 302.12,-471.84 302.12,-471.84 388.12,-471.84 388.12,-471.84 394.12,-471.84 400.12,-477.84 400.12,-483.84 400.12,-483.84 400.12,-512.84 400.12,-512.84 400.12,-518.84 394.12,-524.84 388.12,-524.84"/>
<text text-anchor="middle" x="345.12" y="-509.64" font-family="Times,serif" font-size="14.00">e</text>
<text text-anchor="middle" x="345.12" y="-494.64" font-family="Times,serif" font-size="14.00">~</text>
<text text-anchor="middle" x="345.12" y="-479.64" font-family="Times,serif" font-size="14.00">MutableData</text>
</g>
<!-- e&#45;&gt;like_b -->
<g id="edge5" class="edge">
<title>e&#45;&gt;like_b</title>
<path fill="none" stroke="black" d="M345.83,-471.79C346.13,-460.88 346.49,-447.79 346.83,-435.25"/>
<polygon fill="black" stroke="black" points="350.34,-435 347.12,-424.91 343.35,-434.81 350.34,-435"/>
</g>
<!-- d -->
<g id="node4" class="node">
<title>d</title>
<path fill="lightgrey" stroke="black" d="M260.12,-524.84C260.12,-524.84 174.12,-524.84 174.12,-524.84 168.12,-524.84 162.12,-518.84 162.12,-512.84 162.12,-512.84 162.12,-483.84 162.12,-483.84 162.12,-477.84 168.12,-471.84 174.12,-471.84 174.12,-471.84 260.12,-471.84 260.12,-471.84 266.12,-471.84 272.12,-477.84 272.12,-483.84 272.12,-483.84 272.12,-512.84 272.12,-512.84 272.12,-518.84 266.12,-524.84 260.12,-524.84"/>
<text text-anchor="middle" x="217.12" y="-509.64" font-family="Times,serif" font-size="14.00">d</text>
<text text-anchor="middle" x="217.12" y="-494.64" font-family="Times,serif" font-size="14.00">~</text>
<text text-anchor="middle" x="217.12" y="-479.64" font-family="Times,serif" font-size="14.00">MutableData</text>
</g>
<!-- d&#45;&gt;like_b -->
<g id="edge6" class="edge">
<title>d&#45;&gt;like_b</title>
<path fill="none" stroke="black" d="M247.84,-471.79C265.65,-456.98 288.3,-438.14 307.57,-422.12"/>
<polygon fill="black" stroke="black" points="309.86,-424.76 315.31,-415.67 305.39,-419.38 309.86,-424.76"/>
</g>
<!-- a -->
<g id="node5" class="node">
<title>a</title>
<path fill="lightgrey" stroke="black" d="M388.12,-92C388.12,-92 302.12,-92 302.12,-92 296.12,-92 290.12,-86 290.12,-80 290.12,-80 290.12,-51 290.12,-51 290.12,-45 296.12,-39 302.12,-39 302.12,-39 388.12,-39 388.12,-39 394.12,-39 400.12,-45 400.12,-51 400.12,-51 400.12,-80 400.12,-80 400.12,-86 394.12,-92 388.12,-92"/>
<text text-anchor="middle" x="345.12" y="-76.8" font-family="Times,serif" font-size="14.00">a</text>
<text text-anchor="middle" x="345.12" y="-61.8" font-family="Times,serif" font-size="14.00">~</text>
<text text-anchor="middle" x="345.12" y="-46.8" font-family="Times,serif" font-size="14.00">MutableData</text>
</g>
<!-- c -->
<g id="node6" class="node">
<title>c</title>
<path fill="lightgrey" stroke="black" d="M260.12,-302.93C260.12,-302.93 174.12,-302.93 174.12,-302.93 168.12,-302.93 162.12,-296.93 162.12,-290.93 162.12,-290.93 162.12,-261.93 162.12,-261.93 162.12,-255.93 168.12,-249.93 174.12,-249.93 174.12,-249.93 260.12,-249.93 260.12,-249.93 266.12,-249.93 272.12,-255.93 272.12,-261.93 272.12,-261.93 272.12,-290.93 272.12,-290.93 272.12,-296.93 266.12,-302.93 260.12,-302.93"/>
<text text-anchor="middle" x="217.12" y="-287.73" font-family="Times,serif" font-size="14.00">c</text>
<text text-anchor="middle" x="217.12" y="-272.73" font-family="Times,serif" font-size="14.00">~</text>
<text text-anchor="middle" x="217.12" y="-257.73" font-family="Times,serif" font-size="14.00">MutableData</text>
</g>
<!-- c&#45;&gt;like_a -->
<g id="edge12" class="edge">
<title>c&#45;&gt;like_a</title>
<path fill="none" stroke="black" d="M247.14,-249.89C264.33,-235.25 286.15,-216.68 304.82,-200.78"/>
<polygon fill="black" stroke="black" points="307.27,-203.3 312.61,-194.15 302.73,-197.97 307.27,-203.3"/>
</g>
<!-- like_a&#45;&gt;a -->
<g id="edge1" class="edge">
<title>like_a&#45;&gt;a</title>
<path fill="none" stroke="black" d="M345.12,-127.99C345.12,-119.58 345.12,-110.63 345.12,-102.25"/>
<polygon fill="black" stroke="black" points="348.62,-102.01 345.12,-92.01 341.62,-102.01 348.62,-102.01"/>
</g>
<!-- epsilon -->
<g id="node8" class="node">
<title>epsilon</title>
<ellipse fill="none" stroke="black" cx="467.12" cy="-498.34" rx="49.49" ry="37.45"/>
<text text-anchor="middle" x="467.12" y="-509.64" font-family="Times,serif" font-size="14.00">epsilon</text>
<text text-anchor="middle" x="467.12" y="-494.64" font-family="Times,serif" font-size="14.00">~</text>
<text text-anchor="middle" x="467.12" y="-479.64" font-family="Times,serif" font-size="14.00">Normal</text>
</g>
<!-- epsilon&#45;&gt;like_b -->
<g id="edge3" class="edge">
<title>epsilon&#45;&gt;like_b</title>
<path fill="none" stroke="black" d="M436.17,-468.99C421.14,-455.23 402.92,-438.55 386.97,-423.94"/>
<polygon fill="black" stroke="black" points="389.08,-421.13 379.34,-416.96 384.35,-426.3 389.08,-421.13"/>
</g>
<!-- sigma_a -->
<g id="node9" class="node">
<title>sigma_a</title>
<ellipse fill="none" stroke="black" cx="72.12" cy="-276.43" rx="72.25" ry="37.45"/>
<text text-anchor="middle" x="72.12" y="-287.73" font-family="Times,serif" font-size="14.00">sigma_a</text>
<text text-anchor="middle" x="72.12" y="-272.73" font-family="Times,serif" font-size="14.00">~</text>
<text text-anchor="middle" x="72.12" y="-257.73" font-family="Times,serif" font-size="14.00">Exponential</text>
</g>
<!-- sigma_a&#45;&gt;like_a -->
<g id="edge8" class="edge">
<title>sigma_a&#45;&gt;like_a</title>
<path fill="none" stroke="black" d="M124.31,-250.31C132.88,-246.39 141.71,-242.48 150.12,-238.95 197.11,-219.27 251.52,-199.28 290.9,-185.29"/>
<polygon fill="black" stroke="black" points="292.32,-188.5 300.58,-181.87 289.98,-181.9 292.32,-188.5"/>
</g>
<!-- beta -->
<g id="node10" class="node">
<title>beta</title>
<ellipse fill="none" stroke="black" cx="467.12" cy="-276.43" rx="49.49" ry="37.45"/>
<text text-anchor="middle" x="467.12" y="-287.73" font-family="Times,serif" font-size="14.00">beta</text>
<text text-anchor="middle" x="467.12" y="-272.73" font-family="Times,serif" font-size="14.00">~</text>
<text text-anchor="middle" x="467.12" y="-257.73" font-family="Times,serif" font-size="14.00">Normal</text>
</g>
<!-- beta&#45;&gt;like_a -->
<g id="edge9" class="edge">
<title>beta&#45;&gt;like_a</title>
<path fill="none" stroke="black" d="M435.71,-247.37C420.17,-233.5 401.27,-216.61 384.75,-201.86"/>
<polygon fill="black" stroke="black" points="386.65,-198.87 376.86,-194.82 381.99,-204.09 386.65,-198.87"/>
</g>
<!-- delta -->
<g id="node11" class="node">
<title>delta</title>
<ellipse fill="none" stroke="black" cx="584.12" cy="-498.34" rx="49.49" ry="37.45"/>
<text text-anchor="middle" x="584.12" y="-509.64" font-family="Times,serif" font-size="14.00">delta</text>
<text text-anchor="middle" x="584.12" y="-494.64" font-family="Times,serif" font-size="14.00">~</text>
<text text-anchor="middle" x="584.12" y="-479.64" font-family="Times,serif" font-size="14.00">Normal</text>
</g>
<!-- delta&#45;&gt;like_b -->
<g id="edge4" class="edge">
<title>delta&#45;&gt;like_b</title>
<path fill="none" stroke="black" d="M547.21,-473.23C540,-468.89 532.42,-464.58 525.12,-460.86 485.1,-440.47 437.95,-421.39 402.38,-407.93"/>
<polygon fill="black" stroke="black" points="403.26,-404.52 392.67,-404.29 400.8,-411.08 403.26,-404.52"/>
</g>
<!-- gamma -->
<g id="node12" class="node">
<title>gamma</title>
<ellipse fill="none" stroke="black" cx="584.12" cy="-276.43" rx="49.49" ry="37.45"/>
<text text-anchor="middle" x="584.12" y="-287.73" font-family="Times,serif" font-size="14.00">gamma</text>
<text text-anchor="middle" x="584.12" y="-272.73" font-family="Times,serif" font-size="14.00">~</text>
<text text-anchor="middle" x="584.12" y="-257.73" font-family="Times,serif" font-size="14.00">Normal</text>
</g>
<!-- gamma&#45;&gt;like_a -->
<g id="edge11" class="edge">
<title>gamma&#45;&gt;like_a</title>
<path fill="none" stroke="black" d="M547.22,-251.29C540.02,-246.96 532.43,-242.65 525.12,-238.95 484.01,-218.16 435.44,-198.89 399.13,-185.46"/>
<polygon fill="black" stroke="black" points="400.29,-182.16 389.7,-182 397.88,-188.73 400.29,-182.16"/>
</g>
<!-- sigma_b -->
<g id="node13" class="node">
<title>sigma_b</title>
<ellipse fill="none" stroke="black" cx="724.12" cy="-498.34" rx="72.25" ry="37.45"/>
<text text-anchor="middle" x="724.12" y="-509.64" font-family="Times,serif" font-size="14.00">sigma_b</text>
<text text-anchor="middle" x="724.12" y="-494.64" font-family="Times,serif" font-size="14.00">~</text>
<text text-anchor="middle" x="724.12" y="-479.64" font-family="Times,serif" font-size="14.00">Exponential</text>
</g>
<!-- sigma_b&#45;&gt;like_b -->
<g id="edge7" class="edge">
<title>sigma_b&#45;&gt;like_b</title>
<path fill="none" stroke="black" d="M671.74,-472.39C662.02,-468.23 651.85,-464.19 642.12,-460.86 561.85,-433.35 465.93,-411.72 406,-399.49"/>
<polygon fill="black" stroke="black" points="406.46,-396.01 395.97,-397.46 405.08,-402.87 406.46,-396.01"/>
</g>
</g>
</svg>
