<?xml version="1.0" encoding="UTF-8" standalone="no"?>
<!DOCTYPE svg PUBLIC "-//W3C//DTD SVG 1.1//EN"
 "http://www.w3.org/Graphics/SVG/1.1/DTD/svg11.dtd">
<!-- Generated by graphviz version 3.0.0 (20220315.2325)
 -->
<!-- Pages: 1 -->
<svg width="658pt" height="327pt"
 viewBox="0.00 0.00 658.50 326.93" xmlns="http://www.w3.org/2000/svg" xmlns:xlink="http://www.w3.org/1999/xlink">
<g id="graph0" class="graph" transform="scale(1 1) rotate(0) translate(4 322.93)">
<polygon fill="white" stroke="transparent" points="-4,4 -4,-322.93 654.5,-322.93 654.5,4 -4,4"/>
<g id="clust1" class="cluster">
<title>cluster1000</title>
<path fill="none" stroke="black" d="M20,-8C20,-8 250,-8 250,-8 256,-8 262,-14 262,-20 262,-20 262,-298.93 262,-298.93 262,-304.93 256,-310.93 250,-310.93 250,-310.93 20,-310.93 20,-310.93 14,-310.93 8,-304.93 8,-298.93 8,-298.93 8,-20 8,-20 8,-14 14,-8 20,-8"/>
<text text-anchor="middle" x="235.5" y="-15.8" font-family="Times,serif" font-size="14.00">1000</text>
</g>
<!-- c -->
<g id="node1" class="node">
<title>c</title>
<path fill="lightgrey" stroke="black" d="M242,-302.93C242,-302.93 156,-302.93 156,-302.93 150,-302.93 144,-296.93 144,-290.93 144,-290.93 144,-261.93 144,-261.93 144,-255.93 150,-249.93 156,-249.93 156,-249.93 242,-249.93 242,-249.93 248,-249.93 254,-255.93 254,-261.93 254,-261.93 254,-290.93 254,-290.93 254,-296.93 248,-302.93 242,-302.93"/>
<text text-anchor="middle" x="199" y="-287.73" font-family="Times,serif" font-size="14.00">c</text>
<text text-anchor="middle" x="199" y="-272.73" font-family="Times,serif" font-size="14.00">~</text>
<text text-anchor="middle" x="199" y="-257.73" font-family="Times,serif" font-size="14.00">MutableData</text>
</g>
<!-- like -->
<g id="node2" class="node">
<title>like</title>
<ellipse fill="lightgrey" stroke="black" cx="202" cy="-165.48" rx="49.49" ry="37.45"/>
<text text-anchor="middle" x="202" y="-176.78" font-family="Times,serif" font-size="14.00">like</text>
<text text-anchor="middle" x="202" y="-161.78" font-family="Times,serif" font-size="14.00">~</text>
<text text-anchor="middle" x="202" y="-146.78" font-family="Times,serif" font-size="14.00">Normal</text>
</g>
<!-- c&#45;&gt;like -->
<g id="edge6" class="edge">
<title>c&#45;&gt;like</title>
<path fill="none" stroke="black" d="M199.7,-249.89C200,-238.98 200.36,-225.89 200.71,-213.35"/>
<polygon fill="black" stroke="black" points="204.22,-213.09 200.99,-203 197.22,-212.9 204.22,-213.09"/>
</g>
<!-- a -->
<g id="node4" class="node">
<title>a</title>
<path fill="lightgrey" stroke="black" d="M242,-92C242,-92 156,-92 156,-92 150,-92 144,-86 144,-80 144,-80 144,-51 144,-51 144,-45 150,-39 156,-39 156,-39 242,-39 242,-39 248,-39 254,-45 254,-51 254,-51 254,-80 254,-80 254,-86 248,-92 242,-92"/>
<text text-anchor="middle" x="199" y="-76.8" font-family="Times,serif" font-size="14.00">a</text>
<text text-anchor="middle" x="199" y="-61.8" font-family="Times,serif" font-size="14.00">~</text>
<text text-anchor="middle" x="199" y="-46.8" font-family="Times,serif" font-size="14.00">MutableData</text>
</g>
<!-- like&#45;&gt;a -->
<g id="edge1" class="edge">
<title>like&#45;&gt;a</title>
<path fill="none" stroke="black" d="M200.88,-127.99C200.63,-119.58 200.35,-110.63 200.09,-102.25"/>
<polygon fill="black" stroke="black" points="203.59,-101.9 199.78,-92.01 196.59,-102.11 203.59,-101.9"/>
</g>
<!-- b -->
<g id="node3" class="node">
<title>b</title>
<path fill="lightgrey" stroke="black" d="M114,-302.93C114,-302.93 28,-302.93 28,-302.93 22,-302.93 16,-296.93 16,-290.93 16,-290.93 16,-261.93 16,-261.93 16,-255.93 22,-249.93 28,-249.93 28,-249.93 114,-249.93 114,-249.93 120,-249.93 126,-255.93 126,-261.93 126,-261.93 126,-290.93 126,-290.93 126,-296.93 120,-302.93 114,-302.93"/>
<text text-anchor="middle" x="71" y="-287.73" font-family="Times,serif" font-size="14.00">b</text>
<text text-anchor="middle" x="71" y="-272.73" font-family="Times,serif" font-size="14.00">~</text>
<text text-anchor="middle" x="71" y="-257.73" font-family="Times,serif" font-size="14.00">MutableData</text>
</g>
<!-- b&#45;&gt;like -->
<g id="edge4" class="edge">
<title>b&#45;&gt;like</title>
<path fill="none" stroke="black" d="M101.71,-249.89C119.53,-235.07 142.18,-216.23 161.44,-200.21"/>
<polygon fill="black" stroke="black" points="163.74,-202.85 169.19,-193.77 159.26,-197.47 163.74,-202.85"/>
</g>
<!-- beta -->
<g id="node5" class="node">
<title>beta</title>
<ellipse fill="none" stroke="black" cx="321" cy="-276.43" rx="49.49" ry="37.45"/>
<text text-anchor="middle" x="321" y="-287.73" font-family="Times,serif" font-size="14.00">beta</text>
<text text-anchor="middle" x="321" y="-272.73" font-family="Times,serif" font-size="14.00">~</text>
<text text-anchor="middle" x="321" y="-257.73" font-family="Times,serif" font-size="14.00">Normal</text>
</g>
<!-- beta&#45;&gt;like -->
<g id="edge3" class="edge">
<title>beta&#45;&gt;like</title>
<path fill="none" stroke="black" d="M290.04,-247.09C275.01,-233.33 256.8,-216.65 240.84,-202.04"/>
<polygon fill="black" stroke="black" points="242.95,-199.23 233.21,-195.06 238.23,-204.39 242.95,-199.23"/>
</g>
<!-- sigma_a -->
<g id="node6" class="node">
<title>sigma_a</title>
<ellipse fill="none" stroke="black" cx="461" cy="-276.43" rx="72.25" ry="37.45"/>
<text text-anchor="middle" x="461" y="-287.73" font-family="Times,serif" font-size="14.00">sigma_a</text>
<text text-anchor="middle" x="461" y="-272.73" font-family="Times,serif" font-size="14.00">~</text>
<text text-anchor="middle" x="461" y="-257.73" font-family="Times,serif" font-size="14.00">Exponential</text>
</g>
<!-- sigma_a&#45;&gt;like -->
<g id="edge2" class="edge">
<title>sigma_a&#45;&gt;like</title>
<path fill="none" stroke="black" d="M407.29,-251.26C397.88,-247.11 388.17,-242.87 379,-238.95 337.55,-221.25 290.29,-201.95 255.04,-187.71"/>
<polygon fill="black" stroke="black" points="256.01,-184.33 245.43,-183.84 253.4,-190.82 256.01,-184.33"/>
</g>
<!-- gamma -->
<g id="node7" class="node">
<title>gamma</title>
<ellipse fill="none" stroke="black" cx="601" cy="-276.43" rx="49.49" ry="37.45"/>
<text text-anchor="middle" x="601" y="-287.73" font-family="Times,serif" font-size="14.00">gamma</text>
<text text-anchor="middle" x="601" y="-272.73" font-family="Times,serif" font-size="14.00">~</text>
<text text-anchor="middle" x="601" y="-257.73" font-family="Times,serif" font-size="14.00">Normal</text>
</g>
<!-- gamma&#45;&gt;like -->
<g id="edge5" class="edge">
<title>gamma&#45;&gt;like</title>
<path fill="none" stroke="black" d="M564.89,-250.43C557.55,-246.13 549.71,-242.05 542,-238.95 447.84,-201.14 330.72,-181.73 261.4,-172.87"/>
<polygon fill="black" stroke="black" points="261.47,-169.35 251.12,-171.58 260.61,-176.3 261.47,-169.35"/>
</g>
</g>
</svg>
